<svg xmlns="http://www.w3.org/2000/svg" version="1.1" xmlns:xlink="http://www.w3.org/1999/xlink" xmlns:svgjs="http://svgjs.dev/svgjs" width="1440" height="850" preserveAspectRatio="none" viewBox="0 0 1440 850"><g mask="url(&quot;#SvgjsMask1386&quot;)" fill="none"><rect width="1440" height="850" x="0" y="0" fill="url(&quot;#SvgjsLinearGradient1387&quot;)"></rect><path d="M94.72 756.5L183.05 807.5L183.05 909.5L94.72 960.5L6.38 909.5L6.38 807.5zM271.39 144.5L359.73 195.5L359.73 297.5L271.39 348.5L183.05 297.5L183.05 195.5zM271.39 756.5L359.73 807.5L359.73 909.5L271.39 960.5L183.05 909.5L183.05 807.5zM359.73 297.5L448.07 348.5L448.07 450.5L359.73 501.5L271.39 450.5L271.39 348.5zM801.41 450.5L889.75 501.5L889.75 603.5L801.41 654.5L713.08 603.5L713.08 501.5zM713.08 603.5L801.41 654.5L801.41 756.5L713.08 807.5L624.74 756.5L624.74 654.5zM1154.76 450.5L1243.1 501.5L1243.1 603.5L1154.76 654.5L1066.43 603.5L1066.43 501.5zM1331.44 450.5L1419.77 501.5L1419.77 603.5L1331.44 654.5L1243.1 603.5L1243.1 501.5zM1243.1 603.5L1331.44 654.5L1331.44 756.5L1243.1 807.5L1154.76 756.5L1154.76 654.5zM1331.44 756.5L1419.77 807.5L1419.77 909.5L1331.44 960.5L1243.1 909.5L1243.1 807.5zM1508.11 450.5L1596.45 501.5L1596.45 603.5L1508.11 654.5L1419.77 603.5L1419.77 501.5z" stroke="rgba(15, 18, 57, 1)" stroke-width="2"></path><path d="M84.52 756.5 a10.2 10.2 0 1 0 20.4 0 a10.2 10.2 0 1 0 -20.4 0zM172.85 807.5 a10.2 10.2 0 1 0 20.4 0 a10.2 10.2 0 1 0 -20.4 0zM172.85 909.5 a10.2 10.2 0 1 0 20.4 0 a10.2 10.2 0 1 0 -20.4 0zM84.52 960.5 a10.2 10.2 0 1 0 20.4 0 a10.2 10.2 0 1 0 -20.4 0zM-3.82 909.5 a10.2 10.2 0 1 0 20.4 0 a10.2 10.2 0 1 0 -20.4 0zM-3.82 807.5 a10.2 10.2 0 1 0 20.4 0 a10.2 10.2 0 1 0 -20.4 0zM261.19 144.5 a10.2 10.2 0 1 0 20.4 0 a10.2 10.2 0 1 0 -20.4 0zM349.53 195.5 a10.2 10.2 0 1 0 20.4 0 a10.2 10.2 0 1 0 -20.4 0zM349.53 297.5 a10.2 10.2 0 1 0 20.4 0 a10.2 10.2 0 1 0 -20.4 0zM261.19 348.5 a10.2 10.2 0 1 0 20.4 0 a10.2 10.2 0 1 0 -20.4 0zM172.85 297.5 a10.2 10.2 0 1 0 20.4 0 a10.2 10.2 0 1 0 -20.4 0zM172.85 195.5 a10.2 10.2 0 1 0 20.4 0 a10.2 10.2 0 1 0 -20.4 0zM261.19 756.5 a10.2 10.2 0 1 0 20.4 0 a10.2 10.2 0 1 0 -20.4 0zM349.53 807.5 a10.2 10.2 0 1 0 20.4 0 a10.2 10.2 0 1 0 -20.4 0zM349.53 909.5 a10.2 10.2 0 1 0 20.4 0 a10.2 10.2 0 1 0 -20.4 0zM261.19 960.5 a10.2 10.2 0 1 0 20.4 0 a10.2 10.2 0 1 0 -20.4 0zM437.87 348.5 a10.2 10.2 0 1 0 20.4 0 a10.2 10.2 0 1 0 -20.4 0zM437.87 450.5 a10.2 10.2 0 1 0 20.4 0 a10.2 10.2 0 1 0 -20.4 0zM349.53 501.5 a10.2 10.2 0 1 0 20.4 0 a10.2 10.2 0 1 0 -20.4 0zM261.19 450.5 a10.2 10.2 0 1 0 20.4 0 a10.2 10.2 0 1 0 -20.4 0zM791.21 450.5 a10.2 10.2 0 1 0 20.4 0 a10.2 10.2 0 1 0 -20.4 0zM879.55 501.5 a10.2 10.2 0 1 0 20.4 0 a10.2 10.2 0 1 0 -20.4 0zM879.55 603.5 a10.2 10.2 0 1 0 20.4 0 a10.2 10.2 0 1 0 -20.4 0zM791.21 654.5 a10.2 10.2 0 1 0 20.4 0 a10.2 10.2 0 1 0 -20.4 0zM702.88 603.5 a10.2 10.2 0 1 0 20.4 0 a10.2 10.2 0 1 0 -20.4 0zM702.88 501.5 a10.2 10.2 0 1 0 20.4 0 a10.2 10.2 0 1 0 -20.4 0zM791.21 756.5 a10.2 10.2 0 1 0 20.4 0 a10.2 10.2 0 1 0 -20.4 0zM702.88 807.5 a10.2 10.2 0 1 0 20.4 0 a10.2 10.2 0 1 0 -20.4 0zM614.54 756.5 a10.2 10.2 0 1 0 20.4 0 a10.2 10.2 0 1 0 -20.4 0zM614.54 654.5 a10.2 10.2 0 1 0 20.4 0 a10.2 10.2 0 1 0 -20.4 0zM1144.56 450.5 a10.2 10.2 0 1 0 20.4 0 a10.2 10.2 0 1 0 -20.4 0zM1232.9 501.5 a10.2 10.2 0 1 0 20.4 0 a10.2 10.2 0 1 0 -20.4 0zM1232.9 603.5 a10.2 10.2 0 1 0 20.4 0 a10.2 10.2 0 1 0 -20.4 0zM1144.56 654.5 a10.2 10.2 0 1 0 20.4 0 a10.2 10.2 0 1 0 -20.4 0zM1056.23 603.5 a10.2 10.2 0 1 0 20.4 0 a10.2 10.2 0 1 0 -20.4 0zM1056.23 501.5 a10.2 10.2 0 1 0 20.4 0 a10.2 10.2 0 1 0 -20.4 0zM1321.24 450.5 a10.2 10.2 0 1 0 20.4 0 a10.2 10.2 0 1 0 -20.4 0zM1409.57 501.5 a10.2 10.2 0 1 0 20.4 0 a10.2 10.2 0 1 0 -20.4 0zM1409.57 603.5 a10.2 10.2 0 1 0 20.4 0 a10.2 10.2 0 1 0 -20.4 0zM1321.24 654.5 a10.2 10.2 0 1 0 20.4 0 a10.2 10.2 0 1 0 -20.4 0zM1321.24 756.5 a10.2 10.2 0 1 0 20.4 0 a10.2 10.2 0 1 0 -20.4 0zM1232.9 807.5 a10.2 10.2 0 1 0 20.4 0 a10.2 10.2 0 1 0 -20.4 0zM1144.56 756.5 a10.2 10.2 0 1 0 20.4 0 a10.2 10.2 0 1 0 -20.4 0zM1409.57 807.5 a10.2 10.2 0 1 0 20.4 0 a10.2 10.2 0 1 0 -20.4 0zM1409.57 909.5 a10.2 10.2 0 1 0 20.4 0 a10.2 10.2 0 1 0 -20.4 0zM1321.24 960.5 a10.2 10.2 0 1 0 20.4 0 a10.2 10.2 0 1 0 -20.4 0zM1232.9 909.5 a10.2 10.2 0 1 0 20.4 0 a10.2 10.2 0 1 0 -20.4 0zM1497.91 450.5 a10.2 10.2 0 1 0 20.4 0 a10.2 10.2 0 1 0 -20.4 0zM1586.25 501.5 a10.2 10.2 0 1 0 20.4 0 a10.2 10.2 0 1 0 -20.4 0zM1586.25 603.5 a10.2 10.2 0 1 0 20.4 0 a10.2 10.2 0 1 0 -20.4 0zM1497.91 654.5 a10.2 10.2 0 1 0 20.4 0 a10.2 10.2 0 1 0 -20.4 0z" fill="rgba(15, 18, 57, 1)"></path><path d="M158.87 365.97L233.35 408.97L233.35 494.97L158.87 537.97L84.39 494.97L84.39 408.97zM84.39 494.97L158.87 537.97L158.87 623.97L84.39 666.97L9.91 623.97L9.91 537.97zM307.83 365.97L382.31 408.97L382.31 494.97L307.83 537.97L233.35 494.97L233.35 408.97zM456.79 107.97L531.27 150.97L531.27 236.97L456.79 279.97L382.31 236.97L382.31 150.97zM382.31 494.97L456.79 537.97L456.79 623.97L382.31 666.97L307.83 623.97L307.83 537.97zM531.27 752.97L605.75 795.97L605.75 881.97L531.27 924.97L456.79 881.97L456.79 795.97zM680.23 752.97L754.71 795.97L754.71 881.97L680.23 924.97L605.75 881.97L605.75 795.97zM903.67 623.97L978.15 666.97L978.15 752.97L903.67 795.97L829.19 752.97L829.19 666.97zM903.67 881.97L978.15 924.97L978.15 1010.97L903.67 1053.97L829.19 1010.97L829.19 924.97zM978.15 -21.03L1052.63 21.97L1052.63 107.97L978.15 150.97L903.67 107.97L903.67 21.97zM978.15 236.97L1052.63 279.97L1052.63 365.97L978.15 408.97L903.67 365.97L903.67 279.97zM1052.63 881.97L1127.11 924.97L1127.11 1010.97L1052.63 1053.97L978.15 1010.97L978.15 924.97zM1350.56 107.97L1425.04 150.97L1425.04 236.97L1350.56 279.97L1276.07 236.97L1276.07 150.97zM1350.56 365.97L1425.04 408.97L1425.04 494.97L1350.56 537.97L1276.07 494.97L1276.07 408.97zM1350.56 881.97L1425.04 924.97L1425.04 1010.97L1350.56 1053.97L1276.07 1010.97L1276.07 924.97zM1499.52 107.97L1574 150.97L1574 236.97L1499.52 279.97L1425.04 236.97L1425.04 150.97z" stroke="url(&quot;#SvgjsLinearGradient1388&quot;)" stroke-width="2"></path></g><defs><mask id="SvgjsMask1386"><rect width="1440" height="850" fill="#ffffff"></rect></mask><linearGradient x1="50%" y1="100%" x2="50%" y2="0%" gradientUnits="userSpaceOnUse" id="SvgjsLinearGradient1387"><stop stop-color="rgba(4, 18, 31, 1)" offset="0"></stop><stop stop-color="rgba(4, 20, 41, 1)" offset="1"></stop></linearGradient><linearGradient x1="720" y1="850" x2="720" y2="0" gradientUnits="userSpaceOnUse" id="SvgjsLinearGradient1388"><stop stop-color="#0e2a47" offset="0"></stop><stop stop-color="rgba(8, 40, 81, 1)" offset="1"></stop></linearGradient></defs></svg>