<svg xmlns="http://www.w3.org/2000/svg" version="1.1" xmlns:xlink="http://www.w3.org/1999/xlink" xmlns:svgjs="http://svgjs.dev/svgjs" width="375" height="1000" preserveAspectRatio="none" viewBox="0 0 375 1000"><g mask="url(&quot;#SvgjsMask1730&quot;)" fill="none"><rect width="375" height="1000" x="0" y="0" fill="url(&quot;#SvgjsLinearGradient1731&quot;)"></rect><path d="M27.65 -59.18L92.6 -21.68L92.6 53.32L27.65 90.82L-37.3 53.32L-37.3 -21.68zM27.65 165.82L92.6 203.32L92.6 278.32L27.65 315.82L-37.3 278.32L-37.3 203.32zM27.65 615.82L92.6 653.32L92.6 728.32L27.65 765.82L-37.3 728.32L-37.3 653.32zM27.65 840.82L92.6 878.32L92.6 953.32L27.65 990.82L-37.3 953.32L-37.3 878.32zM92.6 953.32L157.56 990.82L157.56 1065.82L92.6 1103.32L27.65 1065.82L27.65 990.82zM157.56 165.82L222.51 203.32L222.51 278.32L157.56 315.82L92.6 278.32L92.6 203.32zM222.51 278.32L287.46 315.82L287.46 390.82L222.51 428.32L157.56 390.82L157.56 315.82zM157.56 390.82L222.51 428.32L222.51 503.32L157.56 540.82L92.6 503.32L92.6 428.32zM287.46 -59.18L352.42 -21.68L352.42 53.32L287.46 90.82L222.51 53.32L222.51 -21.68zM352.42 53.32L417.37 90.82L417.37 165.82L352.42 203.32L287.46 165.82L287.46 90.82zM352.42 503.32L417.37 540.82L417.37 615.82L352.42 653.32L287.46 615.82L287.46 540.82zM287.46 840.82L352.42 878.32L352.42 953.32L287.46 990.82L222.51 953.32L222.51 878.32zM352.42 953.32L417.37 990.82L417.37 1065.82L352.42 1103.32L287.46 1065.82L287.46 990.82z" stroke="rgba(1, 9, 54, 0.8)" stroke-width="2"></path><path d="M20.15 -59.18 a7.5 7.5 0 1 0 15 0 a7.5 7.5 0 1 0 -15 0zM85.1 -21.68 a7.5 7.5 0 1 0 15 0 a7.5 7.5 0 1 0 -15 0zM85.1 53.32 a7.5 7.5 0 1 0 15 0 a7.5 7.5 0 1 0 -15 0zM20.15 90.82 a7.5 7.5 0 1 0 15 0 a7.5 7.5 0 1 0 -15 0zM-44.8 53.32 a7.5 7.5 0 1 0 15 0 a7.5 7.5 0 1 0 -15 0zM-44.8 -21.68 a7.5 7.5 0 1 0 15 0 a7.5 7.5 0 1 0 -15 0zM20.15 165.82 a7.5 7.5 0 1 0 15 0 a7.5 7.5 0 1 0 -15 0zM85.1 203.32 a7.5 7.5 0 1 0 15 0 a7.5 7.5 0 1 0 -15 0zM85.1 278.32 a7.5 7.5 0 1 0 15 0 a7.5 7.5 0 1 0 -15 0zM20.15 315.82 a7.5 7.5 0 1 0 15 0 a7.5 7.5 0 1 0 -15 0zM-44.8 278.32 a7.5 7.5 0 1 0 15 0 a7.5 7.5 0 1 0 -15 0zM-44.8 203.32 a7.5 7.5 0 1 0 15 0 a7.5 7.5 0 1 0 -15 0zM20.15 615.82 a7.5 7.5 0 1 0 15 0 a7.5 7.5 0 1 0 -15 0zM85.1 653.32 a7.5 7.5 0 1 0 15 0 a7.5 7.5 0 1 0 -15 0zM85.1 728.32 a7.5 7.5 0 1 0 15 0 a7.5 7.5 0 1 0 -15 0zM20.15 765.82 a7.5 7.5 0 1 0 15 0 a7.5 7.5 0 1 0 -15 0zM-44.8 728.32 a7.5 7.5 0 1 0 15 0 a7.5 7.5 0 1 0 -15 0zM-44.8 653.32 a7.5 7.5 0 1 0 15 0 a7.5 7.5 0 1 0 -15 0zM20.15 840.82 a7.5 7.5 0 1 0 15 0 a7.5 7.5 0 1 0 -15 0zM85.1 878.32 a7.5 7.5 0 1 0 15 0 a7.5 7.5 0 1 0 -15 0zM85.1 953.32 a7.5 7.5 0 1 0 15 0 a7.5 7.5 0 1 0 -15 0zM20.15 990.82 a7.5 7.5 0 1 0 15 0 a7.5 7.5 0 1 0 -15 0zM-44.8 953.32 a7.5 7.5 0 1 0 15 0 a7.5 7.5 0 1 0 -15 0zM-44.8 878.32 a7.5 7.5 0 1 0 15 0 a7.5 7.5 0 1 0 -15 0zM150.06 990.82 a7.5 7.5 0 1 0 15 0 a7.5 7.5 0 1 0 -15 0zM150.06 1065.82 a7.5 7.5 0 1 0 15 0 a7.5 7.5 0 1 0 -15 0zM85.1 1103.32 a7.5 7.5 0 1 0 15 0 a7.5 7.5 0 1 0 -15 0zM20.15 1065.82 a7.5 7.5 0 1 0 15 0 a7.5 7.5 0 1 0 -15 0zM150.06 165.82 a7.5 7.5 0 1 0 15 0 a7.5 7.5 0 1 0 -15 0zM215.01 203.32 a7.5 7.5 0 1 0 15 0 a7.5 7.5 0 1 0 -15 0zM215.01 278.32 a7.5 7.5 0 1 0 15 0 a7.5 7.5 0 1 0 -15 0zM150.06 315.82 a7.5 7.5 0 1 0 15 0 a7.5 7.5 0 1 0 -15 0zM279.96 315.82 a7.5 7.5 0 1 0 15 0 a7.5 7.5 0 1 0 -15 0zM279.96 390.82 a7.5 7.5 0 1 0 15 0 a7.5 7.5 0 1 0 -15 0zM215.01 428.32 a7.5 7.5 0 1 0 15 0 a7.5 7.5 0 1 0 -15 0zM150.06 390.82 a7.5 7.5 0 1 0 15 0 a7.5 7.5 0 1 0 -15 0zM215.01 503.32 a7.5 7.5 0 1 0 15 0 a7.5 7.5 0 1 0 -15 0zM150.06 540.82 a7.5 7.5 0 1 0 15 0 a7.5 7.5 0 1 0 -15 0zM85.1 503.32 a7.5 7.5 0 1 0 15 0 a7.5 7.5 0 1 0 -15 0zM85.1 428.32 a7.5 7.5 0 1 0 15 0 a7.5 7.5 0 1 0 -15 0zM279.96 -59.18 a7.5 7.5 0 1 0 15 0 a7.5 7.5 0 1 0 -15 0zM344.92 -21.68 a7.5 7.5 0 1 0 15 0 a7.5 7.5 0 1 0 -15 0zM344.92 53.32 a7.5 7.5 0 1 0 15 0 a7.5 7.5 0 1 0 -15 0zM279.96 90.82 a7.5 7.5 0 1 0 15 0 a7.5 7.5 0 1 0 -15 0zM215.01 53.32 a7.5 7.5 0 1 0 15 0 a7.5 7.5 0 1 0 -15 0zM215.01 -21.68 a7.5 7.5 0 1 0 15 0 a7.5 7.5 0 1 0 -15 0zM409.87 90.82 a7.5 7.5 0 1 0 15 0 a7.5 7.5 0 1 0 -15 0zM409.87 165.82 a7.5 7.5 0 1 0 15 0 a7.5 7.5 0 1 0 -15 0zM344.92 203.32 a7.5 7.5 0 1 0 15 0 a7.5 7.5 0 1 0 -15 0zM279.96 165.82 a7.5 7.5 0 1 0 15 0 a7.5 7.5 0 1 0 -15 0zM344.92 503.32 a7.5 7.5 0 1 0 15 0 a7.5 7.5 0 1 0 -15 0zM409.87 540.82 a7.5 7.5 0 1 0 15 0 a7.5 7.5 0 1 0 -15 0zM409.87 615.82 a7.5 7.5 0 1 0 15 0 a7.5 7.5 0 1 0 -15 0zM344.92 653.32 a7.5 7.5 0 1 0 15 0 a7.5 7.5 0 1 0 -15 0zM279.96 615.82 a7.5 7.5 0 1 0 15 0 a7.5 7.5 0 1 0 -15 0zM279.96 540.82 a7.5 7.5 0 1 0 15 0 a7.5 7.5 0 1 0 -15 0zM279.96 840.82 a7.5 7.5 0 1 0 15 0 a7.5 7.5 0 1 0 -15 0zM344.92 878.32 a7.5 7.5 0 1 0 15 0 a7.5 7.5 0 1 0 -15 0zM344.92 953.32 a7.5 7.5 0 1 0 15 0 a7.5 7.5 0 1 0 -15 0zM279.96 990.82 a7.5 7.5 0 1 0 15 0 a7.5 7.5 0 1 0 -15 0zM215.01 953.32 a7.5 7.5 0 1 0 15 0 a7.5 7.5 0 1 0 -15 0zM215.01 878.32 a7.5 7.5 0 1 0 15 0 a7.5 7.5 0 1 0 -15 0zM409.87 990.82 a7.5 7.5 0 1 0 15 0 a7.5 7.5 0 1 0 -15 0zM409.87 1065.82 a7.5 7.5 0 1 0 15 0 a7.5 7.5 0 1 0 -15 0zM344.92 1103.32 a7.5 7.5 0 1 0 15 0 a7.5 7.5 0 1 0 -15 0zM279.96 1065.82 a7.5 7.5 0 1 0 15 0 a7.5 7.5 0 1 0 -15 0z" fill="rgba(1, 9, 54, 0.8)"></path><path d="M49.49 258.72L79.8 276.22L79.8 311.22L49.49 328.72L19.18 311.22L19.18 276.22zM49.49 783.72L79.8 801.22L79.8 836.22L49.49 853.72L19.18 836.22L19.18 801.22zM79.8 206.22L110.12 223.72L110.12 258.72L79.8 276.22L49.49 258.72L49.49 223.72zM110.12 258.72L140.43 276.22L140.43 311.22L110.12 328.72L79.8 311.22L79.8 276.22zM79.8 731.22L110.12 748.72L110.12 783.72L79.8 801.22L49.49 783.72L49.49 748.72zM170.74 258.72L201.05 276.22L201.05 311.22L170.74 328.72L140.43 311.22L140.43 276.22zM140.43 941.22L170.74 958.72L170.74 993.72L140.43 1011.22L110.12 993.72L110.12 958.72zM201.05 101.22L231.36 118.72L231.36 153.72L201.05 171.22L170.74 153.72L170.74 118.72zM201.05 311.22L231.36 328.72L231.36 363.72L201.05 381.22L170.74 363.72L170.74 328.72zM201.05 416.22L231.36 433.72L231.36 468.72L201.05 486.22L170.74 468.72L170.74 433.72zM231.36 468.72L261.67 486.22L261.67 521.22L231.36 538.72L201.05 521.22L201.05 486.22zM231.36 888.72L261.67 906.22L261.67 941.22L231.36 958.72L201.05 941.22L201.05 906.22zM291.99 573.72L322.3 591.22L322.3 626.22L291.99 643.72L261.67 626.22L261.67 591.22zM261.67 731.22L291.99 748.72L291.99 783.72L261.67 801.22L231.36 783.72L231.36 748.72zM322.3 -3.78L352.61 13.72L352.61 48.72L322.3 66.22L291.99 48.72L291.99 13.72zM413.23 48.72L443.54 66.22L443.54 101.22L413.23 118.72L382.92 101.22L382.92 66.22zM413.23 363.72L443.54 381.22L443.54 416.22L413.23 433.72L382.92 416.22L382.92 381.22zM413.23 783.72L443.54 801.22L443.54 836.22L413.23 853.72L382.92 836.22L382.92 801.22z" stroke="rgba(3, 1, 80, 0.73)" stroke-width="2"></path></g><defs><mask id="SvgjsMask1730"><rect width="375" height="1000" fill="#ffffff"></rect></mask><linearGradient x1="-41.67%" y1="15.63%" x2="141.67%" y2="84.38%" gradientUnits="userSpaceOnUse" id="SvgjsLinearGradient1731"><stop stop-color="rgba(0, 0, 0, 1)" offset="0"></stop><stop stop-color="rgba(10, 28, 52, 1)" offset="1"></stop></linearGradient></defs></svg>